<svg width="25" height="25" viewBox="0 0 25 25" fill="none" xmlns="http://www.w3.org/2000/svg">
<path d="M24.5312 22.4843L17.9688 15.8805C17.6562 15.566 17.1875 15.4088 16.7188 15.4088C17.9688 13.8365 18.75 11.6352 18.75 9.43396C18.75 4.24528 14.5312 0 9.375 0C4.21875 0 0 4.24528 0 9.43396C0 14.6226 4.21875 18.8679 9.375 18.8679C11.5625 18.8679 13.75 18.0818 15.3125 16.6667C15.3125 17.1384 15.3125 17.6101 15.7812 17.9245L22.3438 24.5283C22.6562 24.8428 23.125 25 23.4375 25C23.75 25 24.2188 24.8428 24.5312 24.5283C25.1562 24.0566 25.1562 23.1132 24.5312 22.4843ZM9.375 16.5094C5.46875 16.5094 2.34375 13.3648 2.34375 9.43396C2.34375 5.50314 5.46875 2.35849 9.375 2.35849C13.2812 2.35849 16.4062 5.50314 16.4062 9.43396C16.4062 13.3648 13.2812 16.5094 9.375 16.5094Z" fill="#5C85FF"/>
</svg>
